<svg xmlns="http://www.w3.org/2000/svg" viewBox="0 0 1920 1080"><g transform="
          rotate(197 960 540) 
          translate(-457.0336084513176 -257.0814047538661)
          scale(1.4760766754701224)
        "><rect width="1920" height="1080" fill="#f7e7ce"></rect><g transform="translate(0, 0)"><path fill="rgb(255, 255, 255)" fill-opacity="1" d="M0,750.067L29.091,731.54C58.182,713.012,116.364,675.958,174.545,610.412C232.727,544.867,290.909,450.83,349.091,506.555C407.273,562.279,465.455,767.764,523.636,748.879C581.818,729.994,640,486.737,698.182,331.626C756.364,176.514,814.545,109.547,872.727,74.639C930.909,39.731,989.091,36.882,1047.273,203.002C1105.455,369.121,1163.636,704.208,1221.818,799.106C1280,894.005,1338.182,748.715,1396.364,602.096C1454.545,455.477,1512.727,307.53,1570.909,368.14C1629.091,428.75,1687.273,697.917,1745.455,836.87C1803.636,975.822,1861.818,984.56,1890.909,988.928L1920,993.297L1920,1080L1890.909,1080C1861.818,1080,1803.636,1080,1745.455,1080C1687.273,1080,1629.091,1080,1570.909,1080C1512.727,1080,1454.545,1080,1396.364,1080C1338.182,1080,1280,1080,1221.818,1080C1163.636,1080,1105.455,1080,1047.273,1080C989.091,1080,930.909,1080,872.727,1080C814.545,1080,756.364,1080,698.182,1080C640,1080,581.818,1080,523.636,1080C465.455,1080,407.273,1080,349.091,1080C290.909,1080,232.727,1080,174.545,1080C116.364,1080,58.182,1080,29.091,1080L0,1080Z"></path></g></g></svg>