<svg xmlns="http://www.w3.org/2000/svg" viewBox="0 0 1920 1080"><g transform="
          rotate(0 960 540) 
          translate(-0 -0)
          scale(1)
        "><rect width="1920" height="1080" fill="rgb(255, 177, 171)"></rect><g transform="translate(0, 0)"><path fill="rgb(255, 255, 255)" fill-opacity="1" d="M0,1058.83L16.842,1050.225C33.684,1041.621,67.368,1024.412,101.053,1021.744C134.737,1019.076,168.421,1030.95,202.105,1032.285C235.789,1033.62,269.474,1024.417,303.158,909.549C336.842,794.682,370.526,574.15,404.211,555.525C437.895,536.9,471.579,720.181,505.263,664.008C538.947,607.835,572.632,312.206,606.316,295.441C640,278.676,673.684,540.773,707.368,606.057C741.053,671.341,774.737,539.81,808.421,418.067C842.105,296.323,875.789,184.366,909.474,242.157C943.158,299.948,976.842,527.486,1010.526,568.515C1044.211,609.543,1077.895,464.06,1111.579,391.242C1145.263,318.424,1178.947,318.271,1212.632,423.823C1246.316,529.375,1280,740.632,1313.684,854.092C1347.368,967.552,1381.053,983.216,1414.737,854.025C1448.421,724.834,1482.105,450.788,1515.789,337.869C1549.474,224.95,1583.158,273.156,1616.842,378.818C1650.526,484.48,1684.211,647.597,1717.895,762.99C1751.579,878.382,1785.263,946.05,1818.947,901.543C1852.632,857.037,1886.316,700.356,1903.158,622.016L1920,543.675L1920,1080L1903.158,1080C1886.316,1080,1852.632,1080,1818.947,1080C1785.263,1080,1751.579,1080,1717.895,1080C1684.211,1080,1650.526,1080,1616.842,1080C1583.158,1080,1549.474,1080,1515.789,1080C1482.105,1080,1448.421,1080,1414.737,1080C1381.053,1080,1347.368,1080,1313.684,1080C1280,1080,1246.316,1080,1212.632,1080C1178.947,1080,1145.263,1080,1111.579,1080C1077.895,1080,1044.211,1080,1010.526,1080C976.842,1080,943.158,1080,909.474,1080C875.789,1080,842.105,1080,808.421,1080C774.737,1080,741.053,1080,707.368,1080C673.684,1080,640,1080,606.316,1080C572.632,1080,538.947,1080,505.263,1080C471.579,1080,437.895,1080,404.211,1080C370.526,1080,336.842,1080,303.158,1080C269.474,1080,235.789,1080,202.105,1080C168.421,1080,134.737,1080,101.053,1080C67.368,1080,33.684,1080,16.842,1080L0,1080Z"></path></g></g></svg>