<svg xmlns="http://www.w3.org/2000/svg" viewBox="0 0 1920 1080"><g transform="
          rotate(212 960 540) 
          translate(-758.5217166015052 -426.66846558834663)
          scale(1.790126788126568)
        "><rect width="1920" height="1080" fill="rgb(255, 255, 255)"></rect><g transform="translate(0, 0)"><path fill="#fdfaf5" fill-opacity="1" d="M0,1071.68L24.615,980.502C49.231,889.324,98.462,706.969,147.692,557.021C196.923,407.074,246.154,289.534,295.385,223.602C344.615,157.67,393.846,143.347,443.077,187.691C492.308,232.035,541.538,335.046,590.769,358.039C640,381.031,689.231,324.005,738.462,391.045C787.692,458.085,836.923,649.191,886.154,680.493C935.385,711.795,984.615,583.294,1033.846,530.866C1083.077,478.438,1132.308,502.083,1181.538,529.642C1230.769,557.2,1280,588.671,1329.231,559.79C1378.462,530.91,1427.692,441.677,1476.923,429.826C1526.154,417.975,1575.385,483.506,1624.615,520.317C1673.846,557.127,1723.077,565.216,1772.308,546.53C1821.538,527.845,1870.769,482.385,1895.385,459.655L1920,436.925L1920,1080L1895.385,1080C1870.769,1080,1821.538,1080,1772.308,1080C1723.077,1080,1673.846,1080,1624.615,1080C1575.385,1080,1526.154,1080,1476.923,1080C1427.692,1080,1378.462,1080,1329.231,1080C1280,1080,1230.769,1080,1181.538,1080C1132.308,1080,1083.077,1080,1033.846,1080C984.615,1080,935.385,1080,886.154,1080C836.923,1080,787.692,1080,738.462,1080C689.231,1080,640,1080,590.769,1080C541.538,1080,492.308,1080,443.077,1080C393.846,1080,344.615,1080,295.385,1080C246.154,1080,196.923,1080,147.692,1080C98.462,1080,49.231,1080,24.615,1080L0,1080Z"></path></g></g></svg>